Coordinates
nRows=247
nColumns=2
inDegrees=yes
endheader
time	ankle_angle_r	
3.29335	 -5.035433	
3.32661	 -5.029094	
3.35988	 -5.020096	
3.39315	 -5.011313	
3.42641	 -5.007882	
3.45968	 -5.006355	
3.49294	 -5.000662	
3.52621	 -4.994568	
3.55948	 -4.993952	
3.59274	 -5.000149	
3.62601	 -5.015991	
3.65927	 -5.041655	
3.69254	 -5.067172	
3.72581	 -5.083153	
3.75907	 -5.093033	
3.79234	 -5.104649	
3.8256	 -5.116462	
3.85887	 -5.119583	
3.89214	 -5.110850	
3.9254	 -5.097993	
3.95867	 -5.093510	
3.99194	 -5.107945	
4.0252	 -5.138650	
4.05847	 -5.165693	
4.09173	 -5.173186	
4.125	 -5.167339	
4.15827	 -5.162779	
4.19153	 -5.162599	
4.2248	 -5.162260	
4.25806	 -5.159507	
4.29133	 -5.153769	
4.3246	 -5.147396	
4.35786	 -5.145476	
4.39113	 -5.146763	
4.4244	 -5.139230	
4.45766	 -5.115055	
4.49093	 -5.087293	
4.52419	 -5.074536	
4.55746	 -5.076057	
4.59073	 -5.078999	
4.62399	 -5.076268	
4.65726	 -5.068129	
4.69052	 -5.058348	
4.72379	 -5.052188	
4.75706	 -5.054040	
4.79032	 -5.065392	
4.82359	 -5.081435	
4.85685	 -5.090151	
4.89012	 -5.083983	
4.92339	 -5.070673	
4.95665	 -5.062904	
4.98992	 -5.062772	
5.02319	 -5.065395	
5.05645	 -5.070589	
5.08972	 -5.079643	
5.12298	 -5.088499	
5.15625	 -5.096845	
5.18952	 -5.112235	
5.22278	 -5.136490	
5.25605	 -5.160915	
5.28931	 -5.175718	
5.32258	 -5.176366	
5.35585	 -5.166278	
5.38911	 -5.157030	
5.42238	 -5.158598	
5.45565	 -5.168163	
5.48891	 -5.178021	
5.52218	 -5.188364	
5.55544	 -5.202161	
5.58871	 -5.221147	
5.62198	 -5.246163	
5.65524	 -5.270927	
5.68851	 -5.288480	
5.72177	 -5.299500	
5.75504	 -5.305393	
5.78831	 -5.308720	
5.82157	 -5.314165	
5.85484	 -5.318387	
5.8881	 -5.310001	
5.92137	 -5.278839	
5.95464	 -5.228671	
5.9879	 -5.183813	
6.02117	 -5.163637	
6.05444	 -5.157072	
6.0877	 -5.144317	
6.12097	 -5.126548	
6.15423	 -5.113793	
6.1875	 -5.102455	
6.22077	 -5.086477	
6.25403	 -5.074332	
6.2873	 -5.076058	
6.32056	 -5.086814	
6.35383	 -5.093081	
6.3871	 -5.088306	
6.42036	 -5.077739	
6.45363	 -5.069987	
6.4869	 -5.069744	
6.52016	 -5.073804	
6.55343	 -5.072949	
6.58669	 -5.064583	
6.61996	 -5.055948	
6.65323	 -5.055699	
6.68649	 -5.068144	
6.71976	 -5.087690	
6.75302	 -5.103134	
6.78629	 -5.109949	
6.81956	 -5.110132	
6.85282	 -5.110440	
6.88609	 -5.119959	
6.91935	 -5.134737	
6.95262	 -5.142372	
6.98589	 -5.144859	
7.01915	 -5.149470	
7.05242	 -5.151441	
7.08569	 -5.147203	
7.11895	 -5.143229	
7.15222	 -5.143897	
7.18548	 -5.146665	
7.21875	 -5.149103	
7.25202	 -5.151188	
7.28528	 -5.151480	
7.31855	 -5.147407	
7.35181	 -5.136338	
7.38508	 -5.114980	
7.41835	 -5.085600	
7.45161	 -5.059384	
7.48488	 -5.046836	
7.51815	 -5.047824	
7.55141	 -5.054856	
7.58468	 -5.061969	
7.61794	 -5.062485	
7.65121	 -5.051638	
7.68448	 -5.039854	
7.71774	 -5.040600	
7.75101	 -5.048925	
7.78427	 -5.053047	
7.81754	 -5.051601	
7.85081	 -5.050026	
7.88407	 -5.052841	
7.91734	 -5.057384	
7.9506	 -5.054958	
7.98387	 -5.044533	
8.01714	 -5.034101	
8.0504	 -5.026198	
8.08367	 -5.018627	
8.11694	 -5.014741	
8.1502	 -5.023846	
8.18347	 -5.053611	
8.21673	 -5.096298	
8.25	 -5.132233	
8.28327	 -5.152569	
8.31653	 -5.161522	
8.3498	 -5.161698	
8.38306	 -5.152021	
8.41633	 -5.136611	
8.4496	 -5.130980	
8.48286	 -5.148262	
8.51613	 -5.175767	
8.5494	 -5.188296	
8.58266	 -5.182161	
8.61593	 -5.174492	
8.64919	 -5.180029	
8.68246	 -5.196844	
8.71573	 -5.209260	
8.74899	 -5.206131	
8.78226	 -5.190259	
8.81552	 -5.168445	
8.84879	 -5.144007	
8.88206	 -5.119084	
8.91532	 -5.095785	
8.94859	 -5.077743	
8.98185	 -5.070871	
9.01512	 -5.074417	
9.04839	 -5.077448	
9.08165	 -5.074507	
9.11492	 -5.073266	
9.14819	 -5.077969	
9.18145	 -5.079357	
9.21472	 -5.069235	
9.24798	 -5.055270	
9.28125	 -5.051777	
9.31452	 -5.060545	
9.34778	 -5.071484	
9.38105	 -5.077613	
9.41431	 -5.079647	
9.44758	 -5.079335	
9.48085	 -5.076326	
9.51411	 -5.072949	
9.54738	 -5.075674	
9.58065	 -5.087860	
9.61391	 -5.107994	
9.64718	 -5.134999	
9.68044	 -5.161334	
9.71371	 -5.170857	
9.74698	 -5.163614	
9.78024	 -5.160455	
9.81351	 -5.169958	
9.84677	 -5.180315	
9.88004	 -5.183533	
9.91331	 -5.184166	
9.94657	 -5.188490	
9.97984	 -5.194760	
10.0131	 -5.197208	
10.0464	 -5.196313	
10.0796	 -5.196170	
10.1129	 -5.197278	
10.1462	 -5.197534	
10.1794	 -5.194469	
10.2127	 -5.188796	
10.246	 -5.188451	
10.2792	 -5.197758	
10.3125	 -5.202418	
10.3458	 -5.184949	
10.379	 -5.149768	
10.4123	 -5.113648	
10.4456	 -5.085027	
10.4788	 -5.063560	
10.5121	 -5.048045	
10.5454	 -5.039305	
10.5786	 -5.035976	
10.6119	 -5.034042	
10.6452	 -5.032655	
10.6784	 -5.031879	
10.7117	 -5.030115	
10.745	 -5.027843	
10.7782	 -5.025213	
10.8115	 -5.020912	
10.8448	 -5.016198	
10.878	 -5.012726	
10.9113	 -5.010683	
10.9446	 -5.009808	
10.9778	 -5.008382	
11.0111	 -5.006372	
11.0444	 -5.006078	
11.0776	 -5.006595	
11.1109	 -5.007832	
11.1442	 -5.014895	
11.1774	 -5.028880	
11.2107	 -5.045346	
11.244	 -5.062052	
11.2772	 -5.075623	
11.3105	 -5.083410	
11.3437	 -5.092186	
11.377	 -5.107249	
11.4103	 -5.124024	
11.4435	 -5.140033	
11.4768	 -5.157339	
